# xmcd CD database file
#
# Track frame offsets:
#	150
#	39610
#	59800
#	80287
#	101262
#	121994
#	141825
#	161919
#	187948
#	209138
#	225726
#	240470
#
# Disc length: 3525 seconds
#
# Revision: 0
# Processed by: cddbd v1.5.2PL0 Copyright (c) Steve Scherf et al.
# Submitted via: CDex 1.51
#
DISCID=a70dc30c
DTITLE=Vasko The Patch - The Peace Pipe
DYEAR=2006
DGENRE=Blues
TTITLE0=The Peace Pipe
TTITLE1=Big Party
TTITLE2=Where Blues Was Born
TTITLE3=Blow Wind Blow
TTITLE4=Night Life
TTITLE5=Artificial Flower
TTITLE6=100 Years Rock'n'Roll
TTITLE7=Virus Blues
TTITLE8=Everybody Oughta Make a Change
TTITLE9=Refusal
TTITLE10=She Can't Say No
TTITLE11=Evil Forces
EXTD=YEAR: 2006
EXTT0=
EXTT1=
EXTT2=
EXTT3=
EXTT4=
EXTT5=
EXTT6=
EXTT7=
EXTT8=
EXTT9=
EXTT10=
EXTT11=
PLAYORDER=
